<svg width="23" height="22" viewBox="0 0 23 22" fill="none" xmlns="http://www.w3.org/2000/svg">
<path d="M8.70702 20.9998C9.92552 20.9998 10.9133 20.0168 10.9133 18.8043C10.9133 17.5918 9.92552 16.6089 8.70702 16.6089C7.48852 16.6089 6.50073 17.5918 6.50073 18.8043C6.50073 20.0168 7.48852 20.9998 8.70702 20.9998Z" stroke="black" stroke-width="1.5" stroke-miterlimit="10" stroke-linecap="round" stroke-linejoin="round"/>
<path d="M18.1113 20.9998C19.3146 20.9998 20.29 20.0292 20.29 18.8318C20.29 17.6345 19.3146 16.6638 18.1113 16.6638C16.9081 16.6638 15.9326 17.6345 15.9326 18.8318C15.9326 20.0292 16.9081 20.9998 18.1113 20.9998Z" stroke="black" stroke-width="1.5" stroke-miterlimit="10" stroke-linecap="round" stroke-linejoin="round"/>
<path d="M8.15531 14.3586H19.0764L21.9998 3.10693H4.65283" stroke="black" stroke-width="1.5" stroke-miterlimit="10" stroke-linecap="round" stroke-linejoin="round"/>
<path d="M1.37109 1.59766H4.18411L8.15542 14.3587" stroke="black" stroke-width="1.5" stroke-miterlimit="10" stroke-linecap="round" stroke-linejoin="round"/>
<path opacity="0.5" d="M5.75598 6.70215H21.0897" stroke="black" stroke-width="1.5" stroke-miterlimit="10" stroke-linecap="round" stroke-linejoin="round"/>
<path opacity="0.5" d="M6.94214 10.4617H20.0971" stroke="black" stroke-width="1.5" stroke-miterlimit="10" stroke-linecap="round" stroke-linejoin="round"/>
<g opacity="0.5">
<path opacity="0.5" d="M10.6101 14.3586L9.20361 3.10693" stroke="black" stroke-width="1.5" stroke-miterlimit="10" stroke-linecap="round" stroke-linejoin="round"/>
<path opacity="0.5" d="M16.3186 14.386L17.6975 3.10693" stroke="black" stroke-width="1.5" stroke-miterlimit="10" stroke-linecap="round" stroke-linejoin="round"/>
<path opacity="0.5" d="M13.423 14.386L13.5333 3.10693" stroke="black" stroke-width="1.5" stroke-miterlimit="10" stroke-linecap="round" stroke-linejoin="round"/>
</g>
</svg>
