<svg width="41" height="29" viewBox="0 0 41 29" fill="none" xmlns="http://www.w3.org/2000/svg">
<path d="M11.098 25.9198C12.7441 24.4358 13.0561 22.1336 11.795 20.7775C10.5338 19.4215 8.17705 19.5252 6.53099 21.0091C4.88493 22.4931 4.5729 24.7953 5.83406 26.1514C7.09521 27.5074 9.45197 27.4037 11.098 25.9198Z" stroke="#7F7F7F" stroke-miterlimit="10" stroke-linecap="round" stroke-linejoin="round"/>
<path d="M33.7821 25.9298C35.4282 24.4458 35.7402 22.1436 34.479 20.7875C33.2179 19.4315 30.8611 19.5352 29.2151 21.0191C27.569 22.5031 27.257 24.8053 28.5181 26.1614C29.7793 27.5174 32.1361 27.4137 33.7821 25.9298Z" stroke="#7F7F7F" stroke-miterlimit="10" stroke-linecap="round" stroke-linejoin="round"/>
<path d="M5.11252 23.4699H0.878784L4.81011 1.49146H26.1987L22.2674 23.4699H12.5078" stroke="#7F7F7F" stroke-miterlimit="10" stroke-linecap="round" stroke-linejoin="round"/>
<path d="M23.752 23.47H27.7932" stroke="#7F7F7F" stroke-miterlimit="10" stroke-linecap="round" stroke-linejoin="round"/>
<path d="M26.7485 6.76953H33.649L35.6009 13.2386L39.9996 15.2957L38.515 23.4699H35.216" stroke="#7F7F7F" stroke-miterlimit="10" stroke-linecap="round" stroke-linejoin="round"/>
<path d="M35.6011 13.2385L31.7523 14.5919H25.3467" stroke="#7F7F7F" stroke-miterlimit="10" stroke-linecap="round" stroke-linejoin="round"/>
<path d="M22.4324 14.5919H17.2364L12.2329 8.58301H1.75854" stroke="#7F7F7F" stroke-miterlimit="10" stroke-linecap="round" stroke-linejoin="round"/>
<path d="M0.521484 11.0461H11.0508L14.0474 14.6461" stroke="#7F7F7F" stroke-miterlimit="10" stroke-linecap="round" stroke-linejoin="round"/>
<path d="M3.18823 6.09277H13.6351L18.941 12.4265" stroke="#7F7F7F" stroke-miterlimit="10" stroke-linecap="round" stroke-linejoin="round"/>
<path d="M1.20874 21.6294H5.93733" stroke="#7F7F7F" stroke-miterlimit="10" stroke-linecap="round" stroke-linejoin="round"/>
<path d="M22.5972 21.6294H12.3428" stroke="#7F7F7F" stroke-miterlimit="10" stroke-linecap="round" stroke-linejoin="round"/>
<path d="M24.0818 21.6294H28.6454" stroke="#7F7F7F" stroke-miterlimit="10" stroke-linecap="round" stroke-linejoin="round"/>
<path d="M35.0237 21.6294H38.845" stroke="#7F7F7F" stroke-miterlimit="10" stroke-linecap="round" stroke-linejoin="round"/>
<path d="M26.2263 8.58301H34.1714" stroke="#7F7F7F" stroke-miterlimit="10" stroke-linecap="round" stroke-linejoin="round"/>
</svg>
