<svg width="21" height="21" viewBox="0 0 21 21" fill="none" xmlns="http://www.w3.org/2000/svg">
<path d="M8.49692 9.84545C7.29343 7.54412 7.70598 4.71888 9.65489 2.78937C12.0647 0.403543 15.9768 0.403543 18.3866 2.78937C20.7964 5.1752 20.7964 9.04829 18.3866 11.4341C16.4974 13.3045 13.6779 13.696 11.3933 12.6369L9.7374 14.2819V16.5438H7.45276V18.8057H5.16812L3.96178 20H1V17.3691L7.44422 10.9891L8.53107 9.91305L8.49692 9.84545Z" stroke="black" stroke-width="1.5" stroke-miterlimit="10" stroke-linecap="round" stroke-linejoin="round"/>
<path d="M17.0183 6.07959C17.4906 6.54718 17.4906 7.30208 17.0183 7.76967C16.546 8.23726 15.7835 8.23726 15.3112 7.76967L13.3765 5.85425C12.9042 5.38666 12.9042 4.63176 13.3765 4.16417C13.8488 3.69658 14.6113 3.69658 15.0836 4.16417L17.0183 6.07959Z" stroke="black" stroke-opacity="0.5" stroke-width="1.5" stroke-miterlimit="10" stroke-linecap="round" stroke-linejoin="round"/>
</svg>
