<svg width="227" height="81" viewBox="0 0 227 81" fill="none" xmlns="http://www.w3.org/2000/svg">
<path d="M26.5672 79.3854L53.0445 0H94.78L103.441 27.0673L111.227 0H125.296V38.863H115.423V12.8497L108.086 38.863H98.2131L89.6865 11.3696V26.9103L107.188 79.3854H84.5608L66.6422 14.3522L48.4866 79.3854H26.5672Z" fill="#DD1F26"/>
<path d="M127.383 0L140.464 27.74C140.464 27.74 140.397 29.7583 137.839 30.9468C135.281 32.1354 129.47 30.9468 129.47 30.9468V38.5714C129.47 38.5714 137.547 40.5673 143.224 38.5714C151.751 35.5889 164.317 0 164.317 0H153.254C153.254 0 148.946 14.7558 146.186 19.0166L139.051 0H127.383Z" fill="#DD1F26"/>
<path d="M165.079 38.863V0C165.079 0 176.054 0 182 0C189.133 0 193.688 6 193.688 12.289C193.688 19 189.735 26 183 26C177.502 26 174.85 26 174.85 26V38.863H165.079ZM180.889 18.2226C182.347 18.2226 185.5 16 185.5 13C185.5 9 181.943 8 180.889 8C178.757 8 174.85 8 174.85 8V18.2002C174.85 18.2002 177.972 18.2226 180.889 18.2226Z" fill="#DD1F26"/>
<path d="M45.8192 64.0914H84.6377L79.589 46.824H51.8775L45.8192 64.0914Z" fill="#DD1F26"/>
<path d="M133.643 79.4526C132.14 80.1927 128.752 81 124.354 81C111.856 81 105.393 73.2184 105.393 62.9252C105.393 50.5913 114.189 43.7068 125.139 43.7068C129.38 43.7068 132.611 44.5589 134.047 45.3214L132.387 51.8247C130.726 51.1295 128.415 50.4792 125.521 50.4792C119.013 50.4792 113.987 54.4036 113.987 62.4543C113.987 69.6977 118.273 74.25 125.588 74.25C128.056 74.25 130.794 73.7118 132.409 73.0614L133.643 79.4526Z" fill="#837D7C"/>
<path d="M146.343 51.1744H136.627V44.3123H164.429V51.1744H154.556V80.4617H146.343V51.1744Z" fill="#837D7C"/>
<path d="M172.507 71.2001L169.926 80.4842H161.445L172.507 44.3123H183.255L194.474 80.4842H185.678L182.873 71.2001H172.507ZM181.684 65.078L179.44 57.4086C178.79 55.2558 178.161 52.5872 177.623 50.4343H177.488C176.95 52.5872 176.411 55.323 175.828 57.4086L173.674 65.078H181.684Z" fill="#837D7C"/>
<path d="M204.369 44.3123V58.2159H217.855V44.3123H226.022V80.4842H217.855V65.3471H204.369V80.4842H196.157V44.3123H204.369Z" fill="#837D7C"/>
<path d="M47.8837 8.88033C44.9442 7.96089 41.556 7.62451 38.3025 7.62451C21.0249 7.62451 7.04572 21.6179 7.04572 38.8629C7.04572 52.5871 15.8865 64.2483 28.2052 68.4418L31.369 59.382C22.7975 56.4891 16.6494 48.3936 16.6494 38.8629C16.6494 26.9102 26.3428 17.2001 38.3249 17.2001C40.6361 17.2001 42.8575 17.5589 44.9442 18.2317L47.8837 8.88033Z" fill="#837D7C"/>
<path d="M14.8542 38.3472L7.56176 33.1221L0.269261 32.6736L0 44.0432H7.472L14.8542 38.3472Z" fill="#837D7C"/>
<path d="M19.1623 26.6188L16.0433 16.7292L10.2542 12.2666L3.63489 21.5058L9.8279 25.6993L19.1623 26.6188Z" fill="#837D7C"/>
<path d="M29.933 18.2317L31.3915 7.93851L28.9009 1.05396L18.3548 5.29233L21.2942 12.1545L29.933 18.2317Z" fill="#837D7C"/>
<path d="M41.4437 14.8007L47.8835 8.8804L49.2299 1.70432L37.9882 0L37.0458 7.40033L41.4437 14.8007Z" fill="#837D7C"/>
<path d="M17.3674 51.2193L9.2222 50.3223L2.80481 53.7982L8.57149 63.598L14.9216 59.6512L17.3674 51.2193Z" fill="#837D7C"/>
<path d="M38.3022 38.863L18.7359 63.2168L14.8541 69.4286L24.7494 75.0574L28.2947 68.4868L38.3022 38.863Z" fill="#837D7C"/>
</svg>
