<svg width="74" height="63" viewBox="0 0 74 63" fill="none" xmlns="http://www.w3.org/2000/svg">
<path d="M22.0765 18.7418L13.4697 3.9292L1.35645 47.1116L17.534 61.1709" stroke="#9A9EA1" stroke-width="2" stroke-miterlimit="10" stroke-linecap="round" stroke-linejoin="round"/>
<path opacity="0.5" d="M56.8224 61.171L52.2799 18.7422" stroke="#9A9EA1" stroke-width="2" stroke-miterlimit="10" stroke-linecap="round" stroke-linejoin="round"/>
<path d="M52.2799 18.7418L60.8867 3.9292L73 47.1116L56.8224 61.1709" stroke="#9A9EA1" stroke-width="2" stroke-miterlimit="10" stroke-linecap="round" stroke-linejoin="round"/>
<path d="M1.35645 47.1115C1.35645 47.1115 13.2306 3.67798 13.4697 4.01273C13.7088 4.34748 21.9968 19.0764 22.1562 18.7416C22.2359 18.4069 37.2181 1 37.2181 1L52.28 18.7416L60.8867 3.92904L73 47.0278L56.8224 61.1709L37.2181 44.2661L17.534 61.1709L1.35645 47.1115Z" stroke="#9A9EA1" stroke-width="2" stroke-miterlimit="10" stroke-linecap="round" stroke-linejoin="round"/>
<path opacity="0.5" d="M17.5341 61.171L22.0765 18.7422" stroke="#9A9EA1" stroke-width="2" stroke-miterlimit="10" stroke-linecap="round" stroke-linejoin="round"/>
<path opacity="0.5" d="M37.2181 44.2662V1" stroke="#9A9EA1" stroke-width="2" stroke-miterlimit="10" stroke-linecap="round" stroke-linejoin="round"/>
<path d="M15.3026 18.1558L19.8451 31.0439L37.2181 24.1814L48.6938 41.9234L54.9895 43.7646" stroke="#9A9EA1" stroke-width="2" stroke-miterlimit="10" stroke-linecap="round" stroke-linejoin="round"/>
<path d="M64.3134 37.9897L60.4084 45.856" stroke="#9A9EA1" stroke-width="2" stroke-miterlimit="10" stroke-linecap="round" stroke-linejoin="round"/>
<path d="M66.2262 43.7646L58.496 40.166" stroke="#9A9EA1" stroke-width="2" stroke-miterlimit="10" stroke-linecap="round" stroke-linejoin="round"/>
</svg>
