<svg width="22" height="22" viewBox="0 0 22 22" fill="none" xmlns="http://www.w3.org/2000/svg">
<path d="M4.93591 16.8751C1.1864 12.379 0.579862 8.8266 1.21397 6.74509C1.54481 5.69046 1.93079 4.8301 2.89573 3.85873C3.36442 3.38692 3.66769 3.38692 4.24666 3.94199L6.89337 6.60632C7.36206 7.07813 7.19664 7.46668 6.81066 7.85523C6.17655 8.49356 5.18404 9.49268 5.18404 9.49268C5.18404 9.49268 6.01113 11.8795 7.94103 13.8222L8.29943 14.183C10.2293 16.1258 12.6003 16.9584 12.6003 16.9584C12.6003 16.9584 13.5929 15.9592 14.227 15.3209C14.6129 14.9324 14.9989 14.7658 15.4676 15.2376L18.1143 17.902C18.6933 18.4848 18.6933 18.7901 18.197 19.2619C15.6606 21.8707 9.95363 21.8985 4.93591 16.8751Z" stroke="#FF0000" stroke-width="1.5" stroke-miterlimit="10" stroke-linecap="round" stroke-linejoin="round"/>
<g opacity="0.5">
<path opacity="0.5" d="M10.2019 1C16.1846 1 21.0093 5.88461 21.0093 11.8794" stroke="#FF0000" stroke-width="1.5" stroke-miterlimit="10" stroke-linecap="round" stroke-linejoin="round"/>
<g opacity="0.5">
<path opacity="0.5" d="M10.2018 3.80322C14.6405 3.80322 18.2246 7.41117 18.2246 11.8795" stroke="#FF0000" stroke-width="1.5" stroke-miterlimit="10" stroke-linecap="round" stroke-linejoin="round"/>
<path opacity="0.5" d="M10.2015 6.71753C13.0412 6.71753 15.3295 9.02107 15.3295 11.8797" stroke="#FF0000" stroke-width="1.5" stroke-miterlimit="10" stroke-linecap="round" stroke-linejoin="round"/>
</g>
</g>
<path d="M2.23401 4.58032L6.1765 8.54907" stroke="#FF0000" stroke-width="1.5" stroke-miterlimit="10" stroke-linecap="round" stroke-linejoin="round"/>
<path d="M13.6755 15.876L17.618 19.8447" stroke="#FF0000" stroke-width="1.5" stroke-miterlimit="10" stroke-linecap="round" stroke-linejoin="round"/>
</svg>
