<svg width="68" height="66" viewBox="0 0 68 66" fill="none" xmlns="http://www.w3.org/2000/svg">
<path d="M50.1676 34.8148C50.1676 39.7037 46.1719 43.7037 41.2884 43.7037H19.8302L8.50925 57.5556L11.839 43.7037H9.98912C5.10555 43.7037 1.1099 39.7037 1.1099 34.8148V10C1.1099 5.11111 5.10555 1.11111 9.98912 1.11111H41.2884C46.1719 1.11111 50.1676 5.11111 50.1676 10V34.8148Z" stroke="#9A9EA1" stroke-width="2" stroke-miterlimit="10" stroke-linecap="round" stroke-linejoin="round"/>
<path d="M66.5201 43.4074C66.5201 47.4074 65.4102 51.1852 63.4864 54.3704L66.8901 63.4815L56.975 61.2593C53.5713 63.5556 49.4276 64.963 44.988 64.963C33.1491 64.963 23.5299 55.3334 23.5299 43.4815C23.5299 31.6297 33.1491 22 44.988 22C56.827 22 66.5201 31.5556 66.5201 43.4074Z" stroke="#9A9EA1" stroke-width="2" stroke-miterlimit="10" stroke-linecap="round" stroke-linejoin="round"/>
</svg>
