<svg width="32" height="45" viewBox="0 0 32 45" fill="none" xmlns="http://www.w3.org/2000/svg">
<path d="M23.9234 26.1343L13.9969 38.0001M15.0823 12.9882C15.0823 12.9882 24.7548 16.3686 21.1422 6.15691C18.8701 -0.234216 15.2241 0.911609 13.6587 1.95765C10.8926 3.79051 11.3097 7.03492 11.3097 7.03492M8.30601 38.5068L2.88763 37.4093C1.80975 37.1946 1.12539 36.1559 1.34964 35.0921L5.54952 13.9206L10.0754 8.03889C11.5415 6.34535 12.919 6.6144 13.9969 6.82905L21.3946 8.33098M30.9783 39.6102C31.0828 40.7527 30.2374 41.7632 29.0945 41.8621L10.8334 43.4431C9.69043 43.542 8.6751 42.6926 8.57066 41.5501L6.49165 18.8066L9.3084 11.5197C10.2885 9.34602 11.765 9.23159 12.9079 9.13264L20.829 8.44688C21.972 8.34793 23.3808 8.22596 24.805 10.1781L28.8994 17.014L30.9783 39.6102ZM16.5278 29.9753C15.7008 30.9639 14.2252 31.0916 13.2318 30.2607C12.2385 29.4297 12.1037 27.9546 12.9307 26.966C13.7577 25.9775 15.2333 25.8497 16.2267 26.6807C17.22 27.5117 17.3549 28.9867 16.5278 29.9753ZM24.8125 36.7832C23.9854 37.7718 22.5098 37.8995 21.5164 37.0685C20.5231 36.2376 20.3883 34.7625 21.2153 33.7739C22.0423 32.7853 23.518 32.6576 24.5113 33.4886C25.5046 34.3196 25.6395 35.7946 24.8125 36.7832ZM19.0827 15.4269C18.249 16.4235 16.7614 16.5523 15.7601 15.7146C14.7587 14.8769 14.6228 13.3899 15.4565 12.3934C16.2901 11.3968 17.7777 11.268 18.7791 12.1057C19.7804 12.9434 19.9163 14.4304 19.0827 15.4269Z" stroke="#FF0000" stroke-width="1.5" stroke-miterlimit="10" stroke-linecap="round" stroke-linejoin="round"/>
</svg>
