<svg width="20" height="18" viewBox="0 0 20 18" fill="none" xmlns="http://www.w3.org/2000/svg">
<path d="M15.4298 12.3077L19.3662 14.6627L19.4627 15.6998L18.379 16.1906L14.4483 13.859M3.07059 11.0044C2.4163 9.4122 2.52038 7.5331 3.51602 5.92716C4.20392 4.8176 5.23527 3.99354 6.38463 3.56029M12.7985 15.0387C10.3235 16.9359 7.03825 17.109 4.23894 15.434C0.593993 13.2532 -0.525538 8.54567 1.73385 4.90046C3.99323 1.25526 8.76393 0.0720853 12.4089 2.25297C15.2082 3.92789 16.5092 7.08495 15.9532 10.1103C15.9532 10.1103 15.6341 11.8182 14.8361 12.8799C14.0382 13.9415 12.7985 15.0387 12.7985 15.0387Z" stroke="black" stroke-miterlimit="10" stroke-linecap="round" stroke-linejoin="round"/>
</svg>
