<svg width="39" height="39" viewBox="0 0 39 39" fill="none" xmlns="http://www.w3.org/2000/svg">
<path d="M23.9799 38C23.1926 36.0293 21.8149 34.9454 19.6991 34.7976C18.6658 34.7483 17.7309 35.0439 16.8944 35.6352C16.058 36.2264 15.5167 37.0146 15.1723 38C13.1549 37.5566 11.3343 36.7683 9.61215 35.7337C10.4486 33.8123 10.301 32.0386 8.87408 30.5113C7.29952 28.8362 5.42975 28.6391 3.31394 29.5752C2.96951 28.984 2.67428 28.3928 2.32985 27.7523C1.7886 26.6192 1.34575 25.486 1.05053 24.2543C1.00132 24.0573 1.00132 24.008 1.19814 23.9095C3.11712 23.1704 4.24883 21.4953 4.24883 19.4754C4.24883 17.6525 2.96951 15.9774 1.09973 15.2876C1.05053 15.2876 1.00132 15.2383 1.00132 15.2383C0.952117 14.4993 2.42826 10.8535 3.26474 9.62184C5.62656 10.8043 7.74237 9.91744 8.82487 8.73502C9.95658 7.50333 10.5962 5.48336 9.46453 3.31558C11.2359 2.23169 13.1057 1.49268 15.0739 1C15.8611 3.16778 17.3373 4.39947 19.6499 4.3502C21.8641 4.30093 23.2419 3.01997 23.9307 1C25.2592 1.19707 28.3099 2.42876 29.4909 3.31558C28.556 5.43409 28.7528 7.40479 30.4749 8.98136C31.8035 10.213 33.8209 10.5579 35.7399 9.5233C36.8224 11.2477 37.5604 13.1198 38.0525 15.1398C36.0351 15.9281 34.8542 17.3076 34.7558 19.4754C34.7066 20.51 35.0018 21.4461 35.6414 22.2836C36.2319 23.1212 37.0684 23.6631 38.0525 23.9587C37.5604 25.9787 36.8224 27.8016 35.7399 29.526C33.7717 28.6391 31.9019 28.8362 30.3765 30.3635C28.802 31.8908 28.6544 33.763 29.5401 35.7337C27.8179 36.7683 25.9481 37.5566 23.9799 38ZM19.5515 28.5899C24.6688 28.5406 28.5068 24.5007 28.6544 19.771C28.802 14.6471 24.7672 10.4594 19.6991 10.4101C14.5818 10.4101 10.4978 14.4501 10.4486 19.4261C10.4486 24.4514 14.4834 28.5406 19.5515 28.5899Z" stroke="#FF0000" stroke-width="1.5" stroke-miterlimit="10" stroke-linecap="round" stroke-linejoin="round"/>
</svg>
