<svg width="141" height="141" viewBox="0 0 141 141" fill="none" xmlns="http://www.w3.org/2000/svg">
<path d="M70.5 0L75.5889 5.83994L81.5286 0.867973L85.6413 7.43209L92.2857 3.45052L95.3208 10.5772L102.506 7.68404L104.389 15.1978L111.939 13.4643L112.623 21.1801L120.351 20.649L119.82 28.3768L127.536 29.0611L125.802 36.6107L133.316 38.4937L130.423 45.6792L137.549 48.7143L133.568 55.3587L140.132 59.4714L135.16 65.4111L141 70.5L135.16 75.5889L140.132 81.5286L133.568 85.6413L137.549 92.2857L130.423 95.3208L133.316 102.506L125.802 104.389L127.536 111.939L119.82 112.623L120.351 120.351L112.623 119.82L111.939 127.536L104.389 125.802L102.506 133.316L95.3208 130.423L92.2857 137.549L85.6413 133.568L81.5286 140.132L75.5889 135.16L70.5 141L65.4111 135.16L59.4714 140.132L55.3587 133.568L48.7143 137.549L45.6792 130.423L38.4937 133.316L36.6107 125.802L29.0611 127.536L28.3768 119.82L20.649 120.351L21.1801 112.623L13.4643 111.939L15.1978 104.389L7.68404 102.506L10.5772 95.3208L3.45052 92.2857L7.43209 85.6413L0.867973 81.5286L5.83994 75.5889L0 70.5L5.83994 65.4111L0.867973 59.4714L7.43209 55.3587L3.45052 48.7143L10.5772 45.6792L7.68404 38.4937L15.1978 36.6107L13.4643 29.0611L21.1801 28.3768L20.649 20.649L28.3768 21.1801L29.0611 13.4643L36.6107 15.1978L38.4937 7.68404L45.6792 10.5772L48.7143 3.45052L55.3587 7.43209L59.4714 0.867973L65.4111 5.83994L70.5 0Z" fill="#FF0000"/>
</svg>
