<svg width="109" height="17" viewBox="0 0 109 17" fill="none" xmlns="http://www.w3.org/2000/svg">
<path d="M7.78571 2.48527L9.45382 5.70234L9.62858 6.03937L10.0037 6.09808L13.6036 6.66158L11.0357 9.19222L10.7604 9.4635L10.8215 9.8451L11.3901 13.3927L8.12149 11.7562L7.78571 11.588L7.44993 11.7562L4.18136 13.3927L4.74989 9.8451L4.81105 9.4635L4.53578 9.19222L1.96784 6.66158L5.56777 6.09808L5.94285 6.03937L6.1176 5.70234L7.78571 2.48527Z" stroke="#FF0000" stroke-width="1.5"/>
<path d="M31.1428 2.48527L32.8109 5.70234L32.9857 6.03937L33.3608 6.09808L36.9607 6.66158L34.3928 9.19222L34.1175 9.4635L34.1787 9.8451L34.7472 13.3927L31.4786 11.7562L31.1428 11.588L30.8071 11.7562L27.5385 13.3927L28.107 9.8451L28.1682 9.4635L27.8929 9.19222L25.325 6.66158L28.9249 6.09808L29.3 6.03937L29.4747 5.70234L31.1428 2.48527Z" stroke="#FF0000" stroke-width="1.5"/>
<path d="M54.5 2.48527L56.1681 5.70234L56.3429 6.03937L56.7179 6.09808L60.3179 6.66158L57.7499 9.19222L57.4747 9.4635L57.5358 9.8451L58.1044 13.3927L54.8358 11.7562L54.5 11.588L54.1642 11.7562L50.8957 13.3927L51.4642 9.8451L51.5253 9.4635L51.2501 9.19222L48.6821 6.66158L52.2821 6.09808L52.6571 6.03937L52.8319 5.70234L54.5 2.48527Z" stroke="#FF0000" stroke-width="1.5"/>
<path d="M77.8571 2.48527L79.5252 5.70234L79.7 6.03937L80.0751 6.09808L83.675 6.66158L81.1071 9.19222L80.8318 9.4635L80.8929 9.8451L81.4615 13.3927L78.1929 11.7562L77.8571 11.588L77.5213 11.7562L74.2528 13.3927L74.8213 9.8451L74.8825 9.4635L74.6072 9.19222L72.0393 6.66158L75.6392 6.09808L76.0143 6.03937L76.189 5.70234L77.8571 2.48527Z" stroke="#FF0000" stroke-width="1.5"/>
<path d="M101.214 2.48527L102.882 5.70234L103.057 6.03937L103.432 6.09808L107.032 6.66158L104.464 9.19222L104.189 9.4635L104.25 9.8451L104.819 13.3927L101.55 11.7562L101.214 11.588L100.879 11.7562L97.61 13.3927L98.1785 9.8451L98.2396 9.4635L97.9644 9.19222L95.3964 6.66158L98.9964 6.09808L99.3714 6.03937L99.5462 5.70234L101.214 2.48527Z" stroke="#FF0000" stroke-width="1.5"/>
</svg>
