<svg width="25" height="26" viewBox="0 0 25 26" fill="none" xmlns="http://www.w3.org/2000/svg">
<path d="M21.0807 3.49294C23.415 5.72499 23.7032 8.62376 23.7032 11.5515C23.7032 14.4793 23.415 17.378 21.0807 19.6101C18.7464 21.8421 15.6917 22.103 12.6082 22.103C11.5707 22.103 10.9943 22.132 9.98571 21.9871C9.4958 21.9291 7.68026 24.9148 7.21917 24.7989C6.93099 24.7409 6.7869 21.2914 6.61399 21.2044C5.74944 20.8276 4.91372 20.3348 4.16444 19.6101C1.83017 17.378 1.54199 14.4793 1.54199 11.5515C1.54199 8.62376 1.83017 5.72499 4.16444 3.49294C6.49871 1.26089 9.55344 1 12.637 1C15.6629 1.02899 18.7176 1.28988 21.0807 3.49294Z" stroke="#7D51A0" stroke-width="1.5" stroke-miterlimit="10" stroke-linecap="round" stroke-linejoin="round"/>
<path d="M8.51586 13.9287C11.974 17.6681 15.4034 18.7697 16.2391 18.6537C17.0748 18.5378 18.6022 17.1754 18.5446 16.3057C18.4869 15.4361 15.778 13.5519 15.144 13.6099C14.51 13.6678 14.193 14.4505 14.193 14.4505C14.193 14.4505 13.876 15.2622 12.7809 14.7694C11.2248 14.0737 8.40058 11.03 8.51586 10.3633C8.51586 10.3633 8.4294 9.84147 9.29395 9.34868C9.72622 9.08779 10.3314 8.47905 9.63977 7.34853C8.94813 6.21801 7.85304 4.3628 6.67149 5.23243C5.48995 6.10206 4.62541 6.79777 5.0865 8.21816C5.92222 10.7111 8.51586 13.9287 8.51586 13.9287Z" stroke="#7D51A0" stroke-width="1.5" stroke-miterlimit="10" stroke-linecap="round" stroke-linejoin="round"/>
<path d="M13.0695 7.78347C13.0695 7.78347 14.107 7.63853 14.8563 8.50816C15.5767 9.31982 15.375 10.3924 15.375 10.3924" stroke="#7D51A0" stroke-width="1.5" stroke-miterlimit="10" stroke-linecap="round" stroke-linejoin="round"/>
<path d="M17.2481 10.9132C17.2481 10.9132 17.7092 8.68112 15.9513 7.05781C14.1934 5.4345 12.4066 5.86932 12.4066 5.86932" stroke="#7D51A0" stroke-width="1.5" stroke-miterlimit="10" stroke-linecap="round" stroke-linejoin="round"/>
<path d="M11.7148 3.98498C11.7148 3.98498 15.3459 3.34725 17.709 5.98513C20.0721 8.62301 19.1787 11.7827 19.1787 11.7827" stroke="#7D51A0" stroke-width="1.5" stroke-miterlimit="10" stroke-linecap="round" stroke-linejoin="round"/>
</svg>
