<svg width="25" height="25" viewBox="0 0 25 25" fill="none" xmlns="http://www.w3.org/2000/svg">
<path d="M9.20071 15.6164C6.67273 12.6107 6.2612 10.2237 6.70213 8.83868C6.9079 8.13143 7.11366 7.48313 7.84854 6.89375C8.73039 6.18651 9.05374 6.36332 9.43587 6.74641L10.2589 8.89762C10.4353 9.48699 10.0238 9.89955 9.75922 10.1648C9.34769 10.5773 8.96555 10.9604 8.96555 10.9604C8.96555 10.9604 9.49466 12.6696 10.788 13.9662L11.1408 14.3198C12.4342 15.6164 14.0803 15.9995 14.0803 15.9995C14.0803 15.9995 14.7564 15.3218 15.1679 14.9092C15.4325 14.644 15.7264 14.1725 16.4319 14.4966L18.6071 15.4396C18.9893 15.8227 19.1068 16.3237 18.1662 17.2667C16.4025 18.9759 12.5811 18.9759 9.20071 15.6164Z" stroke="#14990A" stroke-width="1.5" stroke-miterlimit="10" stroke-linecap="round" stroke-linejoin="round"/>
<path d="M23.7224 12.2865C23.7224 18.5338 18.6664 23.5729 12.4641 23.5729C10.377 23.5729 8.43695 23.013 6.76143 22.0111L1 23.7203L2.88128 18.1507C1.82306 16.471 1.23516 14.4377 1.23516 12.2865C1.23516 6.06859 6.26172 1 12.4935 1C18.7252 1 23.7224 6.06859 23.7224 12.2865Z" stroke="#14990A" stroke-width="1.5" stroke-miterlimit="10" stroke-linecap="round" stroke-linejoin="round"/>
</svg>
